<?xml version="1.0" standalone="no"?>
<!DOCTYPE svg PUBLIC "-//W3C//DTD SVG 20010904//EN"
 "http://www.w3.org/TR/2001/REC-SVG-20010904/DTD/svg10.dtd">
<svg version="1.0" xmlns="http://www.w3.org/2000/svg"
 width="95.000000pt" height="95.000000pt" viewBox="0 0 95.000000 95.000000"
 preserveAspectRatio="xMidYMid meet">
<metadata>
Created by potrace 1.14, written by Peter Selinger 2001-2017
</metadata>
<g transform="translate(0.000000,95.000000) scale(0.100000,-0.100000)"
fill="#000000" stroke="none">
<path d="M11 928 c-4 -12 -6 -776 -2 -821 1 -4 23 -6 50 -4 49 4 49 4 56 -29
3 -18 11 -36 17 -40 8 -5 9 -1 4 12 -12 28 -12 39 -1 42 6 1 10 -1 10 -5 2
-24 18 -52 27 -47 6 4 6 10 -1 17 -6 6 -11 17 -11 25 0 27 -26 39 -80 38 l-55
0 -3 407 -2 407 455 0 455 0 0 -132 c0 -73 4 -128 8 -121 4 6 7 69 6 140 l0
128 -463 0 c-426 0 -464 -1 -470 -17z"/>
<path d="M462 803 c-12 -22 -7 -53 9 -53 16 0 22 30 12 53 l-10 22 -11 -22z"/>
<path d="M407 746 c-3 -7 3 -27 13 -44 19 -31 19 -31 -6 -76 l-25 -45 -29 27
c-15 15 -32 43 -37 62 -10 38 -26 43 -31 10 -2 -11 -11 -20 -20 -20 -11 0 1
-17 35 -48 48 -45 59 -61 77 -119 7 -21 5 -21 -31 -11 -86 23 -113 58 -113
144 0 48 -14 64 -29 35 -15 -28 -14 -73 4 -115 15 -35 14 -36 -5 -36 -11 0
-43 11 -70 25 -58 29 -60 30 -60 10 0 -30 81 -66 180 -80 25 -3 62 -11 82 -17
36 -11 37 -12 35 -54 -2 -49 -8 -52 -67 -28 -25 10 -47 28 -56 46 -17 33 -38
28 -31 -8 3 -19 0 -24 -16 -24 -16 0 -17 -3 -7 -15 7 -8 21 -15 32 -15 33 0
142 -41 176 -66 39 -30 41 -58 7 -104 -14 -19 -23 -40 -21 -47 5 -13 -5 -17
-36 -14 -10 1 -18 -4 -18 -11 0 -10 -3 -9 -10 2 -5 8 -12 11 -15 8 -14 -13 7
-29 28 -22 12 4 36 6 54 6 23 -1 34 4 38 17 9 29 43 33 68 8 22 -22 25 -23 51
-26 8 0 20 -17 26 -37 11 -32 13 -34 26 -17 13 17 13 17 14 0 0 -10 4 -16 9
-12 6 3 4 17 -5 33 -19 38 -18 43 11 32 19 -7 25 -6 25 4 0 9 -16 12 -55 11
-48 -1 -55 1 -55 18 0 10 -11 33 -25 51 -14 18 -25 39 -25 48 0 38 103 101
187 114 47 7 74 28 48 38 -8 3 -15 17 -15 31 0 33 -16 32 -34 -4 -9 -17 -31
-35 -56 -45 -60 -24 -65 -22 -64 26 1 40 4 44 37 55 20 7 58 15 84 19 90 11
194 66 172 89 -4 3 -29 -6 -57 -20 -27 -14 -59 -25 -71 -25 -21 0 -21 1 -6 31
21 41 22 106 1 127 -9 9 -16 12 -17 7 0 -6 -2 -32 -4 -58 -6 -75 -44 -120
-119 -137 l-34 -7 15 42 c13 41 37 70 93 115 15 12 21 23 15 27 -5 5 -14 16
-20 26 -15 27 -29 26 -34 -3 -1 -14 -18 -42 -37 -63 -34 -37 -34 -37 -43 -14
-5 12 -16 29 -25 36 -21 18 -20 26 5 61 14 18 19 35 15 47 -6 16 -11 14 -36
-17 -24 -29 -30 -32 -44 -21 -8 7 -18 21 -21 32 -7 22 -21 25 -28 5z m107
-215 c0 -38 -6 -65 -18 -83 -24 -36 -34 -35 -51 5 -28 67 -23 138 13 180 15
17 17 16 36 -14 14 -22 20 -49 20 -88z m-77 -132 c8 -8 8 -18 1 -35 -16 -34
-28 -30 -28 11 0 36 8 43 27 24z m94 4 c0 -5 2 -18 3 -31 2 -12 -4 -28 -13
-34 -9 -7 -13 -9 -9 -4 4 5 3 17 -3 28 -12 21 -6 48 11 48 5 0 10 -3 11 -7z
m-47 -119 c-3 -13 -10 -24 -15 -24 -11 0 -12 73 -2 84 11 11 24 -33 17 -60z
m119 -227 c-9 -14 -22 23 -15 42 4 10 8 8 14 -8 4 -13 5 -28 1 -34z"/>
<path d="M457 578 c-6 -24 0 -98 9 -107 10 -10 24 24 24 61 0 62 -22 92 -33
46z"/>
<path d="M357 724 c-12 -12 -8 -49 8 -70 13 -16 16 -17 25 -4 5 8 10 20 10 26
0 18 -34 56 -43 48z"/>
<path d="M560 715 c-13 -16 -17 -61 -6 -72 13 -13 36 21 36 53 0 37 -10 43
-30 19z"/>
<path d="M932 505 c1 -86 3 -153 7 -150 8 8 7 305 -1 305 -4 0 -7 -70 -6 -155z"/>
<path d="M117 603 c9 -26 44 -63 60 -63 10 0 12 7 8 23 -8 25 -41 57 -61 57
-8 0 -11 -6 -7 -17z"/>
<path d="M780 600 c-25 -25 -28 -65 -4 -56 9 3 17 6 20 6 4 0 34 56 34 65 0
13 -32 3 -50 -15z"/>
<path d="M270 584 c0 -25 44 -73 68 -74 19 0 14 16 -14 49 -23 27 -54 42 -54
25z"/>
<path d="M623 568 c-24 -28 -36 -58 -22 -58 22 0 49 22 64 50 15 28 14 30 -3
30 -10 0 -28 -10 -39 -22z"/>
<path d="M140 451 c0 -15 30 -41 46 -41 19 0 18 14 -4 33 -20 19 -42 22 -42 8z"/>
<path d="M755 438 c-14 -21 -14 -23 0 -26 19 -4 45 15 45 34 0 22 -27 16 -45
-8z"/>
<path d="M280 430 c0 -15 38 -50 55 -50 21 0 19 13 -8 38 -25 23 -47 29 -47
12z"/>
<path d="M612 413 c-17 -17 -22 -28 -14 -31 18 -6 62 25 62 43 0 23 -18 18
-48 -12z"/>
<path d="M931 233 c-1 -58 -2 -108 -4 -109 -2 -2 -23 -5 -48 -6 -24 -2 -47 -7
-51 -13 -5 -6 -8 -5 -8 3 0 8 -12 12 -35 10 -23 -1 -34 -6 -31 -14 9 -23 -18
-33 -38 -13 -18 17 -18 18 3 12 12 -3 21 -1 21 3 0 5 -16 9 -35 10 -42 1 -45
-8 -9 -25 21 -9 25 -17 21 -39 -5 -25 -4 -25 9 -8 12 17 14 17 20 3 3 -10 11
-17 16 -17 6 0 5 7 -2 15 -26 32 28 81 56 52 4 -4 8 -22 9 -42 l1 -35 -167 0
c-139 0 -167 2 -163 14 4 10 -2 12 -23 8 l-28 -5 34 32 c32 30 33 32 16 51
-13 15 -22 17 -36 9 -20 -10 -26 -39 -9 -39 5 0 7 7 4 15 -4 9 0 15 9 15 29 0
29 -21 1 -51 -24 -25 -26 -31 -14 -39 10 -7 -11 -10 -64 -10 -78 0 -78 0 -74
25 3 14 1 25 -3 25 -5 0 -9 10 -9 23 0 22 -4 23 -75 24 -64 0 -73 -2 -58 -13
10 -7 19 -9 21 -4 7 19 42 -5 54 -36 7 -19 16 -34 20 -34 8 0 -9 45 -24 66 -5
8 1 11 20 10 16 -1 29 -5 30 -11 1 -5 5 -25 8 -43 l6 -33 -43 3 c-30 2 -43 7
-41 16 1 8 -2 11 -8 7 -6 -3 -8 -11 -5 -16 4 -5 -31 -9 -84 -9 -50 0 -91 -3
-91 -7 0 -10 877 -9 886 0 4 4 -8 7 -26 7 -32 0 -32 1 -16 19 9 10 14 25 10
35 -9 24 -22 19 -17 -7 3 -14 -2 -29 -11 -36 -9 -8 -16 -10 -17 -5 -8 74 -10
73 55 76 25 2 46 5 47 8 5 31 3 230 -3 230 -3 0 -7 -48 -7 -107z"/>
<path d="M666 73 c-4 -10 0 -23 10 -32 15 -15 16 -14 7 4 -6 11 -8 26 -6 33 7
19 -4 14 -11 -5z"/>
<path d="M793 75 c4 -9 2 -24 -4 -31 -10 -12 -9 -13 5 -8 19 7 22 39 4 50 -8
5 -9 2 -5 -11z"/>
</g>
</svg>
